<svg width="38" height="40" viewBox="0 0 38 40" fill="none" xmlns="http://www.w3.org/2000/svg">
<path d="M13.5002 34.1715C4.54191 37.0882 4.54191 28.9632 1.00024 27.9215M26.0002 38.3382V31.0465C26.0002 28.9632 26.2086 28.1298 24.9586 26.8798C30.7919 26.2548 36.4169 23.9632 36.4169 14.3798C36.4144 11.8902 35.4431 9.49921 33.7086 7.71315C34.5221 5.55058 34.4472 3.15405 33.5002 1.04649C33.5002 1.04649 31.2086 0.421488 26.2086 3.75482C21.9737 2.65188 17.5268 2.65188 13.2919 3.75482C8.29191 0.421488 6.00024 1.04649 6.00024 1.04649C5.05333 3.15405 4.97844 5.55058 5.79191 7.71315C4.05744 9.49921 3.08611 11.8902 3.08358 14.3798C3.08358 23.9632 8.70858 26.2548 14.5419 26.8798C13.2919 28.1298 13.2919 29.3798 13.5002 31.0465V38.3382" stroke="white" stroke-width="2" stroke-linecap="round" stroke-linejoin="round"/>
</svg>
