<svg width="40" height="32" viewBox="0 0 40 32" fill="none" xmlns="http://www.w3.org/2000/svg">
<path d="M1.00012 5.16667C1.00012 4.0616 1.43911 3.00179 2.22051 2.22039C3.00191 1.43899 4.06172 1 5.16679 1H34.3335C35.4385 1 36.4983 1.43899 37.2797 2.22039C38.0611 3.00179 38.5001 4.0616 38.5001 5.16667V26C38.5001 27.1051 38.0611 28.1649 37.2797 28.9463C36.4983 29.7277 35.4385 30.1667 34.3335 30.1667H5.16679C4.06172 30.1667 3.00191 29.7277 2.22051 28.9463C1.43911 28.1649 1.00012 27.1051 1.00012 26V5.16667Z" stroke="white" stroke-width="2" stroke-linecap="round" stroke-linejoin="round"/>
<path d="M1.00012 5.1665L19.7501 17.6665L38.5001 5.1665" stroke="white" stroke-width="2" stroke-linecap="round" stroke-linejoin="round"/>
</svg>
