<svg width="46" height="41" viewBox="0 0 46 41" fill="none" xmlns="http://www.w3.org/2000/svg">
<path d="M44.4332 0.616217C44.0833 0.314554 43.6579 0.114036 43.2025 0.0362552C42.7472 -0.0415253 42.2793 0.00637956 41.8492 0.174811L2.26714 15.665C1.54871 15.9448 0.940593 16.4504 0.53428 17.1056C0.127967 17.7609 -0.0545578 18.5303 0.0141715 19.2983C0.0829008 20.0662 0.399166 20.791 0.915377 21.3637C1.43159 21.9363 2.11982 22.3259 2.87651 22.4736L12.5015 24.3623V35.1553C12.5015 35.934 12.7342 36.6949 13.1698 37.3404C13.6054 37.9859 14.224 38.4865 14.9461 38.7779C15.6683 39.0692 16.461 39.1381 17.2226 38.9757C17.9842 38.8133 18.6799 38.4269 19.2203 37.8662L23.648 33.2744L30.9293 39.6475C31.4372 40.0941 32.0524 40.4013 32.7146 40.5388C33.3769 40.6764 34.0635 40.6396 34.7073 40.4321C35.351 40.2246 35.9299 39.8535 36.3872 39.3551C36.8445 38.8567 37.1645 38.2481 37.316 37.5889L45.2496 3.10645C45.3528 2.65637 45.3313 2.18666 45.1875 1.74787C45.0436 1.30908 44.7828 0.917824 44.4332 0.616217ZM26.4488 11.2334L14.3023 19.9385L7.57769 18.6201L26.4488 11.2334ZM17.189 33.2139V27.6065L20.1187 30.1748L17.189 33.2139ZM33.0406 35.2686L18.6109 22.6182L39.3746 7.73926L33.0406 35.2686Z" fill="#0072D7"/>
</svg>
