<svg width="42" height="42" viewBox="0 0 42 42" fill="none" xmlns="http://www.w3.org/2000/svg">
<path d="M29.9167 25C30.0833 23.625 30.2083 22.25 30.2083 20.8333C30.2083 19.4167 30.0833 18.0417 29.9167 16.6667H36.9583C37.2917 18 37.5 19.3958 37.5 20.8333C37.5 22.2708 37.2917 23.6667 36.9583 25M26.2292 36.5833C27.4792 34.2708 28.4375 31.7708 29.1042 29.1667H35.25C33.25 32.6042 30.0625 35.2708 26.2292 36.5833ZM25.7083 25H15.9583C15.75 23.625 15.625 22.25 15.625 20.8333C15.625 19.4167 15.75 18.0208 15.9583 16.6667H25.7083C25.8958 18.0208 26.0417 19.4167 26.0417 20.8333C26.0417 22.25 25.8958 23.625 25.7083 25ZM20.8333 37.4167C19.1042 34.9167 17.7083 32.1458 16.8542 29.1667H24.8125C23.9583 32.1458 22.5625 34.9167 20.8333 37.4167ZM12.5 12.5H6.41667C8.39583 9.04167 11.6042 6.375 15.4167 5.08333C14.1667 7.39583 13.2292 9.89583 12.5 12.5ZM6.41667 29.1667H12.5C13.2292 31.7708 14.1667 34.2708 15.4167 36.5833C11.6042 35.2708 8.39583 32.6042 6.41667 29.1667ZM4.70833 25C4.375 23.6667 4.16667 22.2708 4.16667 20.8333C4.16667 19.3958 4.375 18 4.70833 16.6667H11.75C11.5833 18.0417 11.4583 19.4167 11.4583 20.8333C11.4583 22.25 11.5833 23.625 11.75 25M20.8333 4.22917C22.5625 6.72917 23.9583 9.52083 24.8125 12.5H16.8542C17.7083 9.52083 19.1042 6.72917 20.8333 4.22917ZM35.25 12.5H29.1042C28.4375 9.89583 27.4792 7.39583 26.2292 5.08333C30.0625 6.39583 33.25 9.04167 35.25 12.5ZM20.8333 0C9.3125 0 0 9.375 0 20.8333C0 26.3587 2.19493 31.6577 6.10194 35.5647C8.0365 37.4993 10.3331 39.0339 12.8608 40.0808C15.3884 41.1278 18.0975 41.6667 20.8333 41.6667C26.3587 41.6667 31.6577 39.4717 35.5647 35.5647C39.4717 31.6577 41.6667 26.3587 41.6667 20.8333C41.6667 18.0975 41.1278 15.3884 40.0808 12.8608C39.0339 10.3331 37.4993 8.0365 35.5647 6.10194C33.6302 4.16739 31.3335 2.63282 28.8059 1.58584C26.2783 0.53887 23.5692 0 20.8333 0Z" fill="#0072D7"/>
</svg>
